<svg width="64" height="64" viewBox="0 0 64 64" fill="none" xmlns="http://www.w3.org/2000/svg">
<path d="M37.333 8.71737C37.333 6.84804 35.8183 5.33337 33.949 5.33337H30.053C28.181 5.33337 26.6663 6.84804 26.6663 8.71737C26.6663 10.2587 25.6103 11.5814 24.173 12.1467C23.9463 12.2374 23.7197 12.3334 23.4983 12.4294C22.0823 13.0427 20.3997 12.856 19.3063 11.7654C18.6718 11.1313 17.8114 10.7751 16.9143 10.7751C16.0173 10.7751 15.1569 11.1313 14.5223 11.7654L11.765 14.5227C11.1309 15.1573 10.7747 16.0176 10.7747 16.9147C10.7747 17.8118 11.1309 18.6722 11.765 19.3067C12.8583 20.4 13.045 22.08 12.4263 23.4987C12.3291 23.722 12.2358 23.9469 12.1463 24.1734C11.581 25.6107 10.2583 26.6667 8.71701 26.6667C6.84767 26.6667 5.33301 28.1814 5.33301 30.0507V33.9494C5.33301 35.8187 6.84767 37.3334 8.71701 37.3334C10.2583 37.3334 11.581 38.3894 12.1463 39.8267C12.237 40.0534 12.333 40.28 12.4263 40.5014C13.0423 41.9174 12.8557 43.6 11.765 44.6934C11.1309 45.3279 10.7747 46.1883 10.7747 47.0854C10.7747 47.9825 11.1309 48.8428 11.765 49.4774L14.5223 52.2347C15.1569 52.8688 16.0173 53.225 16.9143 53.225C17.8114 53.225 18.6718 52.8688 19.3063 52.2347C20.3997 51.1414 22.0797 50.9547 23.4983 51.5707C23.7197 51.6694 23.9463 51.7627 24.173 51.8534C25.6103 52.4187 26.6663 53.7414 26.6663 55.2827C26.6663 57.152 28.181 58.6667 30.0503 58.6667H33.949C35.8183 58.6667 37.333 57.152 37.333 55.2827C37.333 53.7414 38.389 52.4187 39.8263 51.8507C40.053 51.7627 40.2797 51.6694 40.501 51.5734C41.917 50.9547 43.5997 51.144 44.6903 52.2347C45.0046 52.5491 45.3777 52.7985 45.7884 52.9686C46.199 53.1388 46.6392 53.2263 47.0837 53.2263C47.5282 53.2263 47.9683 53.1388 48.379 52.9686C48.7896 52.7985 49.1628 52.5491 49.477 52.2347L52.2343 49.4774C52.8684 48.8428 53.2246 47.9825 53.2246 47.0854C53.2246 46.1883 52.8684 45.3279 52.2343 44.6934C51.141 43.6 50.9543 41.92 51.5703 40.5014C51.669 40.28 51.7623 40.0534 51.853 39.8267C52.4183 38.3894 53.741 37.3334 55.2823 37.3334C57.1517 37.3334 58.6663 35.8187 58.6663 33.9494V30.0534C58.6663 28.184 57.1517 26.6694 55.2823 26.6694C53.741 26.6694 52.4183 25.6134 51.8503 24.176C51.761 23.9495 51.6676 23.7246 51.5703 23.5014C50.957 22.0854 51.1437 20.4027 52.2343 19.3094C52.8684 18.6748 53.2246 17.8145 53.2246 16.9174C53.2246 16.0203 52.8684 15.1599 52.2343 14.5254L49.477 11.768C48.8425 11.1339 47.9821 10.7777 47.085 10.7777C46.1879 10.7777 45.3276 11.1339 44.693 11.768C43.5997 12.8614 41.9197 13.048 40.501 12.432C40.2778 12.3339 40.0528 12.2397 39.8263 12.1494C38.389 11.5814 37.333 10.2587 37.333 8.72004V8.71737Z" stroke="#B295C4" stroke-width="5"/>
<path d="M42.6663 32C42.6663 34.829 41.5425 37.5421 39.5421 39.5425C37.5418 41.5429 34.8286 42.6667 31.9997 42.6667C29.1707 42.6667 26.4576 41.5429 24.4572 39.5425C22.4568 37.5421 21.333 34.829 21.333 32C21.333 29.1711 22.4568 26.458 24.4572 24.4576C26.4576 22.4572 29.1707 21.3334 31.9997 21.3334C34.8286 21.3334 37.5418 22.4572 39.5421 24.4576C41.5425 26.458 42.6663 29.1711 42.6663 32V32Z" stroke="#B295C4" stroke-width="5"/>
</svg>
