<svg width="64" height="64" viewBox="0 0 64 64" fill="none" xmlns="http://www.w3.org/2000/svg">
<path d="M5.33301 16H58.6663M26.6663 29.3334V42.6667M37.333 29.3334V42.6667M10.6663 16H53.333L49.1197 53.92C48.9752 55.225 48.3545 56.4309 47.3763 57.3067C46.3982 58.1826 45.1313 58.6668 43.8183 58.6667H20.181C18.868 58.6668 17.6012 58.1826 16.623 57.3067C15.6448 56.4309 15.0241 55.225 14.8797 53.92L10.6663 16ZM19.5863 8.39204C20.0177 7.47729 20.7002 6.70403 21.5544 6.16247C22.4085 5.62091 23.399 5.33336 24.4103 5.33337H39.589C40.6008 5.33286 41.5919 5.62016 42.4465 6.16176C43.3012 6.70335 43.9841 7.47688 44.4157 8.39204L47.9997 16H15.9997L19.5863 8.39204Z" stroke="#B295C4" stroke-width="6" stroke-linecap="round" stroke-linejoin="round"/>
</svg>
