<svg width="71" height="72" viewBox="0 0 71 72" fill="none" xmlns="http://www.w3.org/2000/svg">
<path d="M63.1168 36.233L51.0312 30.1936V16.0313C51.031 15.6193 50.9161 15.2156 50.6994 14.8653C50.4827 14.5149 50.1728 14.2319 49.8043 14.0477L36.4918 7.39147C36.1838 7.23758 35.8443 7.15747 35.5 7.15747C35.1557 7.15747 34.8162 7.23758 34.5082 7.39147L21.1957 14.0477C20.8272 14.2319 20.5173 14.5149 20.3006 14.8653C20.0839 15.2156 19.969 15.6193 19.9688 16.0313V30.1913L7.88322 36.233C7.51439 36.4173 7.20421 36.7007 6.98749 37.0515C6.77076 37.4023 6.65606 37.8065 6.65625 38.2188V53.75C6.65647 54.162 6.77137 54.5657 6.98807 54.916C7.20477 55.2664 7.51473 55.5495 7.88322 55.7336L21.1957 62.3898C21.5037 62.5436 21.8433 62.6236 22.1875 62.6236C22.5317 62.6236 22.8713 62.5436 23.1793 62.3898L35.5 56.2328L47.8207 62.3943C48.1287 62.548 48.4683 62.628 48.8125 62.628C49.1567 62.628 49.4963 62.548 49.8043 62.3943L63.1168 55.738C63.4859 55.5536 63.7963 55.2698 64.0131 54.9186C64.2298 54.5674 64.3444 54.1627 64.3438 53.75V38.2188C64.3439 37.8065 64.2292 37.4023 64.0125 37.0515C63.7958 36.7007 63.4856 36.4173 63.1168 36.233ZM46.5938 30.1936L37.7188 34.6311V24.0609L46.5938 19.6234V30.1936ZM35.5 11.8578L43.8514 16.0313L35.5 20.207L27.1486 16.0313L35.5 11.8578ZM24.4062 19.6234L33.2812 24.0609V34.6311L24.4062 30.1936V19.6234ZM19.9688 56.8163L11.0938 52.3788V41.8087L19.9688 46.2462V56.8163ZM22.1875 42.3945L13.8361 38.2188L22.1875 34.0431L30.5389 38.2188L22.1875 42.3945ZM24.4062 46.2462L33.2812 41.8087V52.3788L24.4062 56.8163V46.2462ZM46.5938 56.8163L37.7188 52.3788V41.8087L46.5938 46.2462V56.8163ZM48.8125 42.3945L40.4611 38.2188L48.8125 34.0431L57.1639 38.2188L48.8125 42.3945ZM59.9062 52.3788L51.0312 56.8163V46.2462L59.9062 41.8087V52.3788Z" fill="#B295C4"/>
</svg>
