<svg width="62" height="62" viewBox="0 0 62 62" fill="none" xmlns="http://www.w3.org/2000/svg">
<path d="M14.4024 5.35789C14.7313 5.51603 15.0089 5.76385 15.2031 6.0728C15.3973 6.38175 15.5004 6.73928 15.5003 7.10422C15.5003 9.24839 16.3063 10.4832 17.3164 11.9867L17.3913 12.0952C18.249 13.3714 19.3753 15.0428 19.3753 17.4376C19.3753 19.8814 18.1431 22.0359 16.265 23.3146C16.7584 23.728 17.195 24.2369 17.5722 24.8466C18.8018 26.8357 19.3753 29.8763 19.3753 34.2421C19.3753 38.6648 18.7812 43.9761 17.8124 48.218C17.3319 50.326 16.7352 52.2712 16.0247 53.7308C15.6893 54.457 15.2451 55.1278 14.7072 55.72C14.1751 56.2651 13.3562 56.8463 12.2712 56.8463C11.1862 56.8463 10.3672 56.2651 9.83766 55.72C9.29829 55.129 8.85384 54.458 8.52016 53.7308C7.80716 52.2686 7.21041 50.326 6.72991 48.2154C5.72227 43.6241 5.19844 38.94 5.16699 34.2396C5.16699 29.8737 5.74049 26.8357 6.97016 24.8466C7.32097 24.2692 7.76232 23.7519 8.27733 23.3146C7.31833 22.6635 6.53341 21.7875 5.99121 20.7629C5.44901 19.7384 5.16602 18.5967 5.16699 17.4376C5.16699 16.4869 5.16699 14.8516 6.15641 12.7411C7.12516 10.6744 8.96708 8.30031 12.3512 5.59039C12.6365 5.36224 12.9804 5.21936 13.3433 5.17822C13.7062 5.13709 14.0734 5.19937 14.4024 5.35789V5.35789ZM25.8337 38.5356C24.465 38.3061 23.1337 37.8924 21.876 37.306C21.9302 36.2571 21.9587 35.229 21.9587 34.2421C21.9587 33.1933 21.9277 32.191 21.8605 31.2351C23.0049 32.1781 24.356 32.8781 25.8337 33.2579V27.1251C25.8337 26.0973 26.2419 25.1117 26.9686 24.385C27.6953 23.6583 28.6809 23.2501 29.7087 23.2501H38.7503C38.7506 21.279 38.1871 19.3489 37.1263 17.6876C36.0655 16.0263 34.5517 14.7031 32.7634 13.874C30.9752 13.0449 28.9871 12.7446 27.0338 13.0084C25.0804 13.2723 23.2433 14.0893 21.7391 15.3631C21.2922 13.2603 20.2537 11.7206 19.5897 10.7364L19.4864 10.5814C21.8074 8.94523 24.5333 7.97813 27.3665 7.78568C30.1997 7.59322 33.0314 8.18281 35.5523 9.49007C38.0733 10.7973 40.1867 12.772 41.6618 15.1986C43.1369 17.6251 43.917 20.4103 43.917 23.2501H52.9587C53.9864 23.2501 54.972 23.6583 55.6987 24.385C56.4254 25.1117 56.8337 26.0973 56.8337 27.1251V50.3751C56.8337 51.4028 56.4254 52.3884 55.6987 53.1151C54.972 53.8418 53.9864 54.2501 52.9587 54.2501H29.7087C28.6809 54.2501 27.6953 53.8418 26.9686 53.1151C26.2419 52.3884 25.8337 51.4028 25.8337 50.3751V38.5356ZM31.0003 38.5356V49.0834H51.667V28.4167H43.0361C42.1126 31.0227 40.5098 33.3348 38.3934 35.1138C36.277 36.8927 33.7237 38.0741 30.9977 38.5356H31.0003ZM37.3682 28.4167H31.0003V33.2579C32.3298 32.9136 33.5774 32.3082 34.6707 31.4771C35.7639 30.646 36.6809 29.6056 37.3682 28.4167V28.4167Z" fill="#B295C4"/>
</svg>
