<svg width="71" height="72" viewBox="0 0 71 72" fill="none" xmlns="http://www.w3.org/2000/svg">
<path d="M68.0413 33.0417V27.1251C50.2913 21.2084 35.4997 6.41675 35.4997 6.41675C35.4997 6.41675 20.708 21.2084 2.95801 27.1251V33.0417C2.95801 37.4497 5.70926 41.1772 9.58467 42.6859C9.46634 50.0818 8.63801 58.7497 5.91634 65.5834H65.083C62.3613 58.7497 61.533 50.0818 61.4147 42.6859C63.3639 41.9355 65.0402 40.6126 66.2231 38.8911C67.4059 37.1697 68.0398 35.1304 68.0413 33.0417V33.0417ZM35.4997 14.4338C39.4343 17.8063 45.8243 22.8355 53.5751 27.1251H17.4243C25.1751 22.8355 31.5651 17.8063 35.4997 14.4338ZM38.458 33.0417H47.333C47.333 35.4972 45.3509 37.4792 42.8955 37.4792C40.4401 37.4792 38.458 35.4972 38.458 33.0417ZM28.1038 37.4792C25.6484 37.4792 23.6663 35.4972 23.6663 33.0417H32.5413C32.5413 35.4972 30.5593 37.4792 28.1038 37.4792ZM17.7497 33.0417C17.7497 35.4972 15.7676 37.4792 13.3122 37.4792C10.8568 37.4792 8.87467 35.4972 8.87467 33.0417H17.7497ZM13.7855 59.6668C14.9393 54.1643 15.383 48.3659 15.4718 43.1593C17.4834 42.7155 19.288 41.7097 20.6784 40.2601C21.418 40.9997 22.2759 41.5913 23.193 42.0943C22.8972 47.6263 22.4238 53.9276 21.6547 59.6372H13.7855V59.6668ZM27.6601 59.6668C28.3701 54.253 28.8138 48.4843 29.0801 43.3072C31.5651 43.0705 33.843 41.9759 35.4997 40.2897C37.1563 41.9759 39.4047 43.0705 41.9193 43.3072C42.2151 48.4843 42.6293 54.253 43.3393 59.6668H27.6601ZM49.3151 59.6668C48.5163 53.9276 48.043 47.6263 47.7768 42.1238C48.6938 41.6209 49.5813 41.0292 50.2913 40.2897C51.6818 41.7097 53.4863 42.7451 55.498 43.1888C55.5868 48.3955 56.0305 54.1938 57.1843 59.6963H49.3151V59.6668ZM57.6872 37.4792C55.2318 37.4792 53.2497 35.4972 53.2497 33.0417H62.1247C62.1247 35.4972 60.1426 37.4792 57.6872 37.4792Z" fill="#B295C4"/>
</svg>
