<svg width="71" height="72" viewBox="0 0 71 72" fill="none" xmlns="http://www.w3.org/2000/svg">
<path d="M11.8337 18.2501H5.91699V59.6668C5.91699 62.9209 8.57949 65.5834 11.8337 65.5834H53.2503V59.6668H11.8337V18.2501ZM59.167 6.41675H23.667C20.4128 6.41675 17.7503 9.07925 17.7503 12.3334V47.8334C17.7503 51.0876 20.4128 53.7501 23.667 53.7501H59.167C62.4212 53.7501 65.0837 51.0876 65.0837 47.8334V12.3334C65.0837 9.07925 62.4212 6.41675 59.167 6.41675ZM59.167 47.8334H23.667V12.3334H59.167V47.8334ZM39.9674 30.5567C41.1803 28.3972 43.4582 27.1251 44.7895 25.2317C46.2095 23.2201 45.4107 19.4926 41.417 19.4926C38.8137 19.4926 37.512 21.4747 36.9795 23.1313L32.9266 21.4451C34.0507 18.1317 37.0387 15.2917 41.3874 15.2917C45.0262 15.2917 47.5407 16.9484 48.8128 19.0192C49.9074 20.7942 50.5287 24.1372 48.8424 26.6222C46.9787 29.3734 45.2037 30.2018 44.2274 31.9768C43.8428 32.6868 43.6949 33.1601 43.6949 35.4676H39.1982C39.2278 34.2547 39.0207 32.2726 39.9674 30.5567V30.5567ZM38.3107 41.7688C38.3107 40.0234 39.7012 38.6922 41.417 38.6922C43.1624 38.6922 44.4937 40.0234 44.4937 41.7688C44.4937 43.4847 43.192 44.8751 41.417 44.8751C39.7012 44.8751 38.3107 43.4847 38.3107 41.7688Z" fill="#B295C4"/>
</svg>
