<svg width="20" height="21" viewBox="0 0 20 21" fill="none" xmlns="http://www.w3.org/2000/svg">
<path fill-rule="evenodd" clip-rule="evenodd" d="M6.22087 1.38837C7.19837 1.34337 7.51004 1.33337 10 1.33337C12.49 1.33337 12.8017 1.34421 13.7784 1.38837C14.755 1.43254 15.4217 1.58837 16.005 1.81421C16.6159 2.04504 17.17 2.40587 17.6284 2.87254C18.095 3.33004 18.455 3.88337 18.685 4.49504C18.9117 5.07837 19.0667 5.74504 19.1117 6.72004C19.1567 7.69921 19.1667 8.01087 19.1667 10.5C19.1667 12.99 19.1559 13.3017 19.1117 14.2792C19.0675 15.2542 18.9117 15.9209 18.685 16.5042C18.455 17.116 18.0944 17.6702 17.6284 18.1284C17.17 18.595 16.6159 18.955 16.005 19.185C15.4217 19.4117 14.755 19.5667 13.78 19.6117C12.8017 19.6567 12.49 19.6667 10 19.6667C7.51004 19.6667 7.19837 19.6559 6.22087 19.6117C5.24587 19.5675 4.57921 19.4117 3.99587 19.185C3.38414 18.955 2.82989 18.5944 2.37171 18.1284C1.90536 17.6706 1.54447 17.1166 1.31421 16.505C1.08837 15.9217 0.933374 15.255 0.888374 14.28C0.843374 13.3009 0.833374 12.9892 0.833374 10.5C0.833374 8.01004 0.844207 7.69837 0.888374 6.72171C0.932541 5.74504 1.08837 5.07837 1.31421 4.49504C1.54481 3.88344 1.90597 3.32947 2.37254 2.87171C2.83007 2.40546 3.38377 2.04458 3.99504 1.81421C4.57837 1.58837 5.24504 1.43337 6.22004 1.38837H6.22087ZM13.7042 3.03837C12.7375 2.99421 12.4475 2.98504 10 2.98504C7.55254 2.98504 7.26254 2.99421 6.29587 3.03837C5.40171 3.07921 4.91671 3.22837 4.59337 3.35421C4.16587 3.52087 3.86004 3.71837 3.53921 4.03921C3.23508 4.33508 3.00102 4.69528 2.85421 5.09337C2.72837 5.41671 2.57921 5.90171 2.53837 6.79587C2.49421 7.76254 2.48504 8.05254 2.48504 10.5C2.48504 12.9475 2.49421 13.2375 2.53837 14.2042C2.57921 15.0984 2.72837 15.5834 2.85421 15.9067C3.00087 16.3042 3.23504 16.665 3.53921 16.9609C3.83504 17.265 4.19587 17.4992 4.59337 17.6459C4.91671 17.7717 5.40171 17.9209 6.29587 17.9617C7.26254 18.0059 7.55171 18.015 10 18.015C12.4484 18.015 12.7375 18.0059 13.7042 17.9617C14.5984 17.9209 15.0834 17.7717 15.4067 17.6459C15.8342 17.4792 16.14 17.2817 16.4609 16.9609C16.765 16.665 16.9992 16.3042 17.1459 15.9067C17.2717 15.5834 17.4209 15.0984 17.4617 14.2042C17.5059 13.2375 17.515 12.9475 17.515 10.5C17.515 8.05254 17.5059 7.76254 17.4617 6.79587C17.4209 5.90171 17.2717 5.41671 17.1459 5.09337C16.9792 4.66587 16.7817 4.36004 16.4609 4.03921C16.165 3.7351 15.8048 3.50105 15.4067 3.35421C15.0834 3.22837 14.5984 3.07921 13.7042 3.03837ZM8.82921 13.3259C9.48309 13.5981 10.2112 13.6348 10.8891 13.4298C11.5671 13.2248 12.1529 12.7908 12.5464 12.2019C12.9399 11.613 13.1168 10.9058 13.0467 10.201C12.9767 9.49616 12.6642 8.83752 12.1625 8.33754C11.8427 8.01794 11.456 7.77322 11.0303 7.621C10.6046 7.46877 10.1504 7.41284 9.70045 7.45722C9.25051 7.5016 8.816 7.64519 8.42821 7.87765C8.04042 8.11011 7.70899 8.42566 7.45779 8.80158C7.20659 9.17751 7.04186 9.60445 6.97547 10.0517C6.90908 10.4989 6.94267 10.9553 7.07382 11.388C7.20498 11.8207 7.43044 12.2189 7.73397 12.554C8.03751 12.8891 8.41156 13.1527 8.82921 13.3259ZM6.66837 7.16837C7.10589 6.73085 7.62531 6.38379 8.19696 6.14701C8.7686 5.91022 9.38129 5.78835 10 5.78835C10.6188 5.78835 11.2315 5.91022 11.8031 6.14701C12.3748 6.38379 12.8942 6.73085 13.3317 7.16837C13.7692 7.60589 14.1163 8.12531 14.3531 8.69696C14.5899 9.2686 14.7117 9.88129 14.7117 10.5C14.7117 11.1188 14.5899 11.7315 14.3531 12.3031C14.1163 12.8748 13.7692 13.3942 13.3317 13.8317C12.4481 14.7153 11.2497 15.2117 10 15.2117C8.75042 15.2117 7.55199 14.7153 6.66837 13.8317C5.78476 12.9481 5.28835 11.7497 5.28835 10.5C5.28835 9.25042 5.78476 8.05199 6.66837 7.16837ZM15.7567 6.49004C15.8651 6.38776 15.9519 6.26477 16.012 6.12835C16.072 5.99193 16.104 5.84485 16.1062 5.69582C16.1084 5.54678 16.0806 5.39883 16.0246 5.26072C15.9686 5.1226 15.8854 4.99713 15.78 4.89174C15.6746 4.78635 15.5491 4.70317 15.411 4.64714C15.2729 4.59111 15.125 4.56335 14.9759 4.56553C14.8269 4.5677 14.6798 4.59975 14.5434 4.65979C14.407 4.71982 14.284 4.80662 14.1817 4.91504C13.9828 5.1259 13.8739 5.40597 13.8781 5.69582C13.8823 5.98566 13.9994 6.26244 14.2043 6.46741C14.4093 6.67238 14.6861 6.7894 14.9759 6.79362C15.2658 6.79785 15.5458 6.68895 15.7567 6.49004Z" fill="#A3D1CE"/>
</svg>
