<svg width="34" height="27" viewBox="0 0 34 27" fill="none" xmlns="http://www.w3.org/2000/svg">
<path d="M27.625 25.75H22.0469C21.6086 25.75 21.25 25.3914 21.25 24.9531V22.2969C21.25 21.8586 21.6086 21.5 22.0469 21.5H27.625C28.8004 21.5 29.75 20.5504 29.75 19.375V6.625C29.75 5.44961 28.8004 4.5 27.625 4.5H22.0469C21.6086 4.5 21.25 4.14141 21.25 3.70313V1.04688C21.25 0.608594 21.6086 0.25 22.0469 0.25H27.625C31.1445 0.25 34 3.10547 34 6.625V19.375C34 22.8945 31.1445 25.75 27.625 25.75ZM24.5039 12.4023L13.3477 1.24609C12.3516 0.25 10.625 0.947266 10.625 2.375V8.75H1.59375C0.710547 8.75 0 9.46055 0 10.3438V16.7188C0 17.602 0.710547 18.3125 1.59375 18.3125H10.625V24.6875C10.625 26.1152 12.3516 26.8125 13.3477 25.8164L24.5039 14.6602C25.1215 14.0359 25.1215 13.0266 24.5039 12.4023Z" fill="#ECD5FA"/>
</svg>
