<svg width="408" height="310" viewBox="0 0 408 310" fill="none" xmlns="http://www.w3.org/2000/svg">
<path d="M28.1668 27.6648V82.9944H55.8316C59.623 82.9944 63.1896 82.2875 66.5312 80.8738C69.8728 79.3957 72.7967 77.4036 75.3029 74.8974C77.8092 72.3912 79.7692 69.4672 81.1829 66.1256C82.6609 62.7197 83.4 59.1211 83.4 55.3296C83.4 51.5381 82.6609 47.9716 81.1829 44.63C79.7692 41.2241 77.8092 38.268 75.3029 35.7618C72.7967 33.2556 69.8728 31.2956 66.5312 29.8818C63.1896 28.4038 59.623 27.6648 55.8316 27.6648H28.1668ZM28.1668 138.228H0.501953V0H55.8316C60.9083 0 65.7922 0.674751 70.4833 2.02425C75.1744 3.30949 79.5442 5.17309 83.5928 7.61505C87.7055 9.99274 91.4327 12.8845 94.7743 16.2904C98.1802 19.632 101.072 23.3592 103.45 27.472C105.892 31.5848 107.755 35.9867 109.041 40.6779C110.39 45.369 111.065 50.2529 111.065 55.3296C111.065 60.085 110.454 64.7119 109.233 69.2102C108.077 73.7085 106.374 77.982 104.124 82.0305C101.94 86.079 99.2405 89.8062 96.0275 93.2121C92.8143 96.618 89.2157 99.574 85.2314 102.08L100.558 138.228H71.1581L59.1089 110.37L28.1668 110.563V138.228Z" fill="#FAD5D5"/>
<path fill-rule="evenodd" clip-rule="evenodd" d="M176.227 310H148.562V15.4234H176.227V70.753H231.461V0H259.125V290.914H231.461V235.681H176.227V310ZM176.227 208.016H231.461V98.4173H176.227V208.016Z" fill="#FAD5D5"/>
<path d="M365.735 142.854H338.166V99.574C332.062 98.0317 326.439 95.5576 321.298 92.1517C316.221 88.7458 311.851 84.6973 308.188 80.0062C304.525 75.2508 301.666 70.0135 299.609 64.2942C297.617 58.5106 296.621 52.4378 296.621 46.0759V0H324.286V46.0759C324.286 49.8673 324.993 53.466 326.407 56.8719C327.885 60.2135 329.877 63.1374 332.383 65.6437C334.889 68.1499 337.813 70.142 341.155 71.62C344.561 73.0338 348.159 73.7407 351.951 73.7407C355.742 73.7407 359.309 73.0338 362.65 71.62C366.056 70.142 369.012 68.1499 371.518 65.6437C374.025 63.1374 375.985 60.2135 377.398 56.8719C378.876 53.466 379.615 49.8673 379.615 46.0759V0H407.184V46.0759C407.184 52.4378 406.156 58.5106 404.099 64.2942C402.107 70.0135 399.28 75.2508 395.617 80.0062C391.954 84.6973 387.584 88.7458 382.507 92.1517C377.431 95.5576 371.84 98.0317 365.735 99.574V142.854Z" fill="#FAD5D5"/>
<path d="M69.8091 310H42.2407V199.437H0.695312V171.772H111.258V199.437H69.8091V310Z" fill="#FAD5D5"/>
<path d="M407 310H385.046V202.303C385.046 200.801 384.739 199.399 384.125 198.096C383.562 196.794 382.769 195.667 381.745 194.716C380.773 193.714 379.622 192.938 378.291 192.387C376.96 191.836 375.528 191.561 373.992 191.561C372.457 191.561 371.024 191.836 369.694 192.387C368.363 192.938 367.186 193.714 366.163 194.716C365.19 195.667 364.423 196.794 363.86 198.096C363.297 199.399 363.015 200.801 363.015 202.303V310H340.985V202.303C340.985 200.801 340.703 199.399 340.14 198.096C339.577 196.794 338.784 195.667 337.761 194.716C336.788 193.714 335.637 192.938 334.306 192.387C332.976 191.836 331.543 191.561 330.008 191.561C328.472 191.561 327.04 191.836 325.709 192.387C324.378 192.938 323.201 193.714 322.178 194.716C321.206 195.667 320.438 196.794 319.875 198.096C319.312 199.399 319.031 200.801 319.031 202.303L319.031 310H297V202.303C297 197.846 297.844 193.664 299.533 189.758C301.273 185.801 303.627 182.37 306.595 179.466C309.615 176.511 313.12 174.207 317.112 172.554C321.154 170.851 325.453 170 330.008 170C334.102 170 338.042 170.726 341.829 172.179C345.616 173.581 349.019 175.634 352.038 178.339C355.058 175.634 358.435 173.581 362.171 172.179C365.958 170.726 369.898 170 373.992 170C378.547 170 382.82 170.851 386.812 172.554C390.854 174.207 394.36 176.511 397.328 179.466C400.347 182.37 402.701 185.801 404.39 189.758C406.13 193.664 407 197.846 407 202.303V310Z" fill="#FAD5D5"/>
</svg>
