<svg width="996" height="1044" viewBox="0 0 996 1044" fill="none" xmlns="http://www.w3.org/2000/svg">
<path fill-rule="evenodd" clip-rule="evenodd" d="M472.843 94.3229C477.451 84.1239 479.78 73.0429 479.665 61.8523C479.85 46.3101 475.167 31.0992 466.273 18.3494C462.883 13.4836 458.519 9.37449 453.457 6.28251C448.396 3.19053 442.747 1.18307 436.868 0.387332C430.99 -0.40841 425.01 0.0249108 419.308 1.65984C413.606 3.29477 408.305 6.09566 403.743 9.88505C389.166 22.305 379.615 39.608 376.878 58.5568C374.141 77.5055 378.406 96.8018 388.873 112.835C392.275 117.93 396.733 122.235 401.945 125.456C407.157 128.678 413.002 130.741 419.082 131.507C425.162 132.272 431.336 131.722 437.184 129.893C443.033 128.064 448.419 124.999 452.979 120.906C461.455 113.594 468.234 104.522 472.843 94.3229ZM288.2 361.341C286.884 359.6 285.576 357.868 284.297 356.136C286.414 359.68 288.482 363.223 290.55 366.766C292.618 370.309 294.685 373.852 296.803 377.396C298.017 379.467 299.387 381.486 300.876 383.679C301.438 384.508 302.018 385.363 302.612 386.254L277.108 405.938L261.746 382.907L284.297 355.939L280.161 347.475L256.527 379.463L273.957 406.135L206.799 476.409C202.855 474.128 198.613 472.406 194.195 471.291C190.646 470.503 186.966 470.767 183.3 471.029C181.473 471.16 179.65 471.291 177.848 471.291C172.425 470.76 167.034 469.939 161.699 468.831L161.009 470.307L196.361 493.83L173.318 538.317C168.269 538.66 163.203 538.66 158.154 538.317C152.967 537.361 147.838 536.113 142.792 534.577L141.512 536.644L166.622 553.77L150.867 629.161L112.856 622.862V625.323L153.624 633.098C153.049 637.511 152.475 641.83 151.909 646.085C150.632 655.688 149.398 664.964 148.306 674.239C147.82 677.304 147.82 680.426 148.306 683.491C149.416 689.563 150.595 695.184 151.844 701.136C152.7 705.218 153.589 709.456 154.51 714.101C156.671 724.992 158.742 735.973 160.894 747.385L161.206 749.041C156.276 751.615 151.963 755.227 148.563 759.628C145.163 764.029 142.757 769.113 141.512 774.532C139.365 786.05 133.314 796.477 124.378 804.059C123.787 804.354 123.787 805.437 123.787 808.094C133.512 803.558 141.932 797.541 150.105 791.701C156.829 786.896 163.386 782.21 170.364 778.568C174.452 786.078 178.51 793.435 182.573 800.802C188.786 812.068 195.013 823.358 201.383 835.259L155.003 864.786L156.874 867.837L203.648 838.31L250.915 889.687C247.829 894.753 245.817 900.398 245.004 906.273C244.191 912.148 244.594 918.127 246.188 923.84C249.919 935.377 249.43 947.864 244.809 959.075C244.281 959.537 244.461 960.221 244.637 960.888C244.724 961.216 244.809 961.539 244.809 961.831L247.173 962.914C252.967 953.915 257.947 944.374 262.882 934.917C267.339 926.375 271.761 917.903 276.714 909.962L344.857 946.674C345.047 947.587 345.223 948.573 345.406 949.605C345.698 951.242 346.01 952.993 346.433 954.745C353.991 984.732 373.015 1010.56 399.418 1026.68C425.821 1042.8 457.497 1047.93 487.642 1040.96C503.391 1038.38 518.052 1031.29 529.849 1020.54C541.647 1009.8 550.074 995.866 554.11 980.433C555.185 976.637 555.948 972.736 556.7 968.883C556.982 967.442 557.262 966.007 557.557 964.587L621.367 938.013L645.394 974.429L689.707 914.293L678.579 896.675C707.729 869.909 731.174 837.538 747.51 801.5C757.236 805.449 766.54 809.762 775.719 814.016C787.357 819.411 798.794 824.711 810.631 829.059L812.009 825.909L749.381 797.268C772.945 741.869 778.323 680.427 764.742 621.78C771.201 613.007 777.152 603.871 782.566 594.418C784.823 590.162 786.306 585.558 787.779 580.983C789.133 576.777 790.479 572.596 792.413 568.73C796.489 561.796 801.133 555.212 806.298 549.045C807.173 547.843 808.108 546.701 809.104 545.486C809.902 544.512 810.739 543.491 811.615 542.352C809.646 541.368 808.267 541.368 808.267 541.368L752.138 576.604L704.871 504.656L714.719 495.897C718.264 496.586 721.907 496.586 725.551 496.586C738.052 497.625 750.63 497.328 763.068 495.7C780.001 491.879 796.499 486.338 812.305 479.165C826.791 472.601 841.064 465.54 855.333 458.482C870.163 451.146 884.988 443.812 900.043 437.04C917.076 430.029 931.762 418.321 942.386 403.281C945.973 398.171 950.092 393.356 954.193 388.562C955.384 387.17 956.574 385.779 957.748 384.384C965.036 375.068 974.459 367.641 985.222 362.731C988.134 361.541 990.829 359.878 993.198 357.809C994.303 356.705 995.103 355.335 995.522 353.83C995.94 352.326 995.962 350.739 995.585 349.223C995.209 347.708 994.447 346.315 993.373 345.181C992.299 344.047 990.949 343.21 989.456 342.751C979.787 340.913 969.798 341.778 960.589 345.252C951.381 348.725 943.31 354.671 937.266 362.435C935.274 365.608 932.473 368.192 929.15 369.922C925.826 371.652 922.102 372.465 918.359 372.278C905.905 373.023 893.545 374.901 881.432 377.888C877.102 378.611 873.17 380.85 870.338 384.203C867.506 387.556 865.959 391.806 865.972 396.194C865.909 400.046 864.462 403.747 861.895 406.621C859.327 409.494 855.811 411.348 851.989 411.844C844.313 413.424 836.554 414.574 828.75 415.288C827.87 415.344 826.989 415.398 826.107 415.452C806.561 416.657 786.626 417.886 769.666 429.658C764.141 433.436 757.903 436.047 751.334 437.333C744.764 438.619 738.002 438.553 731.459 437.138C720.933 435.054 710.617 432.023 700.637 428.083C676.347 419.357 652.123 410.269 627.965 400.82C617.579 397.268 607.66 392.476 598.423 386.549C581.715 374.626 562.071 367.481 541.604 365.88C537.09 365.705 532.659 367.135 529.099 369.916C522.539 374.879 516.514 380.261 510.524 385.612C506.893 388.857 503.274 392.09 499.557 395.21C482.659 409.544 465.698 423.815 448.728 438.095C435.634 449.112 422.535 460.133 409.455 471.193C407.42 473.192 405.605 475.403 404.039 477.787C405.121 481.7 406.131 485.469 407.113 489.131C409.167 496.797 411.096 503.993 413.295 511.054C414.535 514.039 416.157 516.851 418.12 519.42L468.046 492.157C468.876 497.344 469.98 501.848 471.026 506.115C471.964 509.944 472.856 513.583 473.462 517.353C474.215 522.047 474.901 526.707 475.578 531.312C476.052 534.529 476.521 537.719 477.007 540.876C431.119 563.612 411.03 589.595 409.947 627.291C409.258 651.897 421.173 680.833 435.747 689.199C424.816 664.791 423.536 641.464 441.458 617.843C465.784 679.417 484.761 742.971 498.178 807.799C494.669 807.998 491.151 807.998 487.642 807.799C473.587 806.418 459.616 804.282 445.791 801.402C408.074 791.95 374.362 770.709 349.565 740.772C324.768 710.836 310.181 673.768 307.93 634.968C305.179 600.69 314.439 566.522 334.124 538.317C348.283 518.105 365.073 499.868 384.049 484.086C406.04 465.91 428.831 448.242 451.61 430.584C455.35 427.684 459.09 424.784 462.827 421.883C515.094 383.07 553.872 328.856 573.706 266.867C574.141 265.886 574.634 264.933 575.184 264.012C581.445 265.057 587.755 265.78 594.09 266.178C596.627 266.23 599.168 266.368 601.705 266.506C613.543 267.148 625.306 267.787 636.335 259.682C670.775 234.685 700.485 203.756 724.073 168.345C737.214 150.715 743.258 128.799 741.011 106.929C740.517 102.238 740.918 97.4955 742.192 92.9534C744.978 82.7673 745.213 72.0528 742.878 61.7543C740.542 51.4559 735.708 41.8899 728.8 33.8997C726.118 31.027 723.221 28.3619 720.135 25.9274C715.871 31.0705 716.491 35.8846 717.08 40.4514C717.28 42.0022 717.476 43.5245 717.476 45.0215C718.735 53.5366 719.557 62.1106 719.938 70.7099C720.174 75.4001 719.288 80.0792 717.353 84.3586C715.418 88.638 712.489 92.3942 708.81 95.3156C705.796 93.0116 702.995 90.4424 700.44 87.6386C699.272 86.277 698.489 84.555 697.699 82.8168C696.89 81.037 696.073 79.2403 694.827 77.7963C691.002 74.1829 686.885 70.8909 682.518 67.954L677.299 73.2689C682.533 82.5658 686.569 92.4868 689.313 102.796C689.723 106.164 689.954 109.566 690.184 112.964C691.003 125.056 691.819 137.108 700.736 147.48C698.836 150.465 696.66 153.266 694.236 155.846C692.858 157.044 691.487 158.242 690.117 159.438C682.485 166.104 674.915 172.716 666.566 178.975C663.035 181.703 659.397 184.291 655.762 186.876C645.1 194.459 634.469 202.02 626.685 213.029C624.942 215.698 622.218 217.572 619.102 218.246H584.046V207.222C585.237 179.948 582.552 152.642 576.07 126.122C572.981 110.655 566.823 95.963 557.961 82.913C549.099 69.863 537.711 58.7193 524.47 50.1395C523.145 49.2965 521.709 48.564 519.96 47.6717C518.85 47.1054 517.613 46.4747 516.199 45.7104C516.539 46.5942 516.82 47.2784 517.043 47.8198C517.465 48.846 517.676 49.3592 517.676 49.7458C533.472 71.0333 544.855 95.2599 551.156 121.004C559.318 146.049 561.211 172.713 556.671 198.66C555.843 202.161 554.685 205.58 553.411 209.343C552.715 211.398 551.985 213.555 551.255 215.884C549.625 215.222 548.013 214.57 546.419 213.925C535.681 209.582 525.716 205.551 516.199 200.923C514.522 200.114 512.835 199.314 511.148 198.514C495.397 191.047 479.542 183.531 470.114 167.263C468.169 164.449 465.694 162.042 462.827 160.176C447.28 147.676 428.537 139.786 408.727 137.402C388.917 135.018 368.836 138.237 350.765 146.692C342.304 150.692 332.856 152.129 323.587 150.826C315.296 149.599 307.078 147.923 298.969 145.807C262.1 134.582 226.467 119.643 192.619 101.221C178.522 94.2144 164.184 87.6295 149.84 81.0422C145.848 79.2089 141.856 77.3754 137.868 75.5326C135.458 74.3658 132.752 73.9485 130.101 74.3345C127.451 74.7205 124.977 75.8921 122.999 77.6979C107.736 89.7055 92.4727 101.615 76.9141 113.032C55.322 127.045 35.9679 144.232 19.5048 164.015C3.84773 185.471 -6.98421 207.616 5.32482 234.682C6.3669 237.866 6.96339 241.178 7.09732 244.525C8.20601 251.511 11.0492 258.109 15.367 263.714C19.6847 269.319 25.3393 273.753 31.8138 276.611C33.902 277.153 36.0587 277.385 38.2145 277.3C37.7574 275.959 37.3569 274.732 36.9838 273.589C36.1512 271.038 35.455 268.906 34.5711 266.867C33.7217 264.91 32.7615 262.982 31.7996 261.05C30.1966 257.83 28.5888 254.601 27.4811 251.217C26.1276 248.348 25.9354 245.067 26.9446 242.059C27.9537 239.052 30.0863 236.55 32.897 235.076C34.3388 236.368 35.9813 237.71 37.6853 239.103C39.3564 240.468 41.0865 241.882 42.7443 243.344C44.4144 245.228 46.7098 246.445 49.2072 246.771C51.7046 247.096 54.2356 246.508 56.3334 245.115L32.2077 208.6C32.7205 206.1 33.6527 203.704 34.965 201.514C41.3778 192.996 48.5282 185.059 56.3334 177.794C75.3437 162.061 97.9359 151.67 120.346 141.361C126.957 138.32 133.552 135.287 140.035 132.126C140.644 132.262 141.238 132.46 141.807 132.716C150.15 137.404 158.493 142.089 166.835 146.772C201.223 166.081 235.586 185.375 269.821 204.86C274.732 207.098 278.981 210.567 282.156 214.93C285.331 219.293 287.323 224.402 287.94 229.761C291.247 262.686 301.125 294.614 316.989 323.657C321.657 332.121 326.956 340.314 332.338 348.633C334.904 352.6 337.488 356.596 340.032 360.664L304.68 384.974C303.852 383.733 303.097 382.576 302.38 381.478C301.051 379.443 299.854 377.611 298.575 375.821C295.343 370.796 291.745 366.033 288.2 361.341ZM275.434 411.45C276.325 410.922 277.286 410.524 278.29 410.269L302.415 389.01L303.696 390.486C302.481 392.117 301.309 393.795 300.137 395.474C294.942 402.914 289.731 410.377 280.653 413.911C279.532 415.639 278.246 417.254 276.813 418.733C250.837 441.267 228.163 467.342 209.458 496.192C208.861 496.91 208.164 497.54 207.39 498.062L200.891 493.633L206.799 484.48L211.821 486.153L210.442 480.346C228.985 454.628 250.837 431.463 275.434 411.45ZM497.883 868.821C385.625 892.738 246.188 824.925 220.979 699.829L245.892 697.073V694.219L219.994 695.597C218.474 688.15 217.356 680.626 216.646 673.058C214.92 649.838 214.624 626.533 215.76 603.276C222.653 533.79 258.595 479.362 308.718 433.103C318.013 424.319 327.856 415.922 337.787 407.45C345.214 401.114 352.69 394.736 360.022 388.124C363.585 394.888 364.746 402.66 363.315 410.169C361.884 417.679 357.946 424.48 352.144 429.461C322.505 455.587 299.661 488.519 285.577 525.424C258.891 600.422 272.972 669.318 319.353 732.604C336.464 756.702 358.46 776.929 383.909 791.971C409.358 807.012 437.689 816.53 467.061 819.905C472.28 821.086 477.499 821.086 482.717 821.086H482.718H499.065C501.4 831.814 500.255 842.055 499.133 852.097C498.504 857.718 497.883 863.276 497.883 868.821ZM535.168 600.596C535.482 598.584 535.802 596.532 536.09 594.418H536.385C559.719 600.602 579.994 615.081 593.409 635.139C606.824 655.198 612.458 679.458 609.255 703.372C605.794 736.349 589.66 766.695 564.253 788.016L560.413 790.772C560.552 788.235 560.676 785.761 560.797 783.335C561.104 777.195 561.396 771.36 561.89 765.576C564.132 743.67 562.902 721.548 558.246 700.026C556.459 691.824 553.116 684.039 548.399 677.094C535.796 658.189 530.542 635.33 533.628 612.823C533.894 608.773 534.518 604.768 535.168 600.596ZM616.88 576.385C616.413 575.838 615.942 575.286 615.459 574.734L615.754 574.832C654.749 602.194 674.739 659.476 669.618 679.16C670.997 682.318 672.021 685.619 672.671 689.003C674.869 723.091 667.683 757.13 651.893 787.426C649.835 790.569 647.113 793.223 643.917 795.201C637.265 800.412 632.466 807.624 630.229 815.771C629.146 819.74 627.344 823.476 624.912 826.795C609.109 845.237 589.881 860.445 568.29 871.577L555.095 856.715C555.521 856.46 556.002 856.113 556.522 855.738C557.205 855.244 557.956 854.702 558.739 854.255C586.238 839.119 609.19 816.914 625.222 789.936C641.254 762.959 649.782 732.19 649.924 700.813C651.434 678.308 650.211 655.703 646.28 633.492C642.771 613.241 633.468 594.439 619.496 579.359C618.601 578.401 617.747 577.4 616.88 576.385ZM558.67 510.904C559.157 510.161 559.662 509.389 560.216 508.593L560.511 508.692C596.749 512.924 644.016 545.108 669.815 583.198C655.931 597.272 659.968 613.611 679.662 620.303C681.54 620.948 683.522 621.349 685.943 621.838C687.585 622.17 689.429 622.542 691.578 623.059C695.123 638.02 698.963 653.964 702.803 669.909L699.554 670.893L696.698 663.511L689.214 660.952L686.457 666.661L676.61 663.806C669.433 622.912 646.665 586.394 613.095 561.939C596.428 549.34 577.284 540.406 556.919 535.725C536.554 531.043 515.428 530.719 494.929 534.774L489.808 506.133L509.503 503.574C508.938 505.922 508.852 508.359 509.248 510.741C509.645 513.123 510.517 515.401 511.812 517.44C513.108 519.478 514.8 521.235 516.788 522.607C518.777 523.978 521.021 524.936 523.387 525.424C529.281 526.842 535.453 526.589 541.211 524.694C546.969 522.799 552.084 519.336 555.981 514.696C556.939 513.547 557.773 512.274 558.67 510.904ZM376.86 884.569C315.889 866.568 263.799 826.538 230.728 772.268C232.26 768.752 232.498 764.806 231.398 761.131C230.299 757.456 227.933 754.289 224.721 752.19C221.434 749.547 218.804 746.178 217.04 742.348C213.599 732.673 210.575 722.894 207.436 712.745C206.264 708.955 205.076 705.114 203.845 701.207L216.646 699.337C223.079 729.142 235.714 757.261 253.731 781.865C271.749 806.469 294.744 827.009 321.224 842.149C373.833 873.719 435.978 885.514 496.504 875.416V896.577H448.45C447.347 896.577 446.245 895.758 445.193 894.978C444.929 894.782 444.669 894.589 444.412 894.411C434.95 887.102 423.762 882.356 411.928 880.632C400.095 878.908 388.016 880.264 376.86 884.569ZM432.005 987.815C442.544 986.065 452.018 980.362 458.494 971.87H523.486C526.703 979.645 526.89 988.343 524.01 996.25C521.13 1004.16 515.393 1010.7 507.927 1014.59C489.409 1025.48 467.389 1028.8 446.48 1023.84C437.991 1022.42 429.603 1020.44 421.37 1017.93C417.118 1016.57 413.171 1014.4 409.75 1011.53C408.309 1010.79 407.12 1009.64 406.335 1008.23C405.549 1006.81 405.203 1005.19 405.341 1003.58C405.478 1001.96 406.092 1000.43 407.105 999.161C408.118 997.897 409.485 996.962 411.03 996.476C417.773 993.02 424.788 990.123 432.005 987.815ZM667.695 532.884C668.914 532.701 670.187 532.51 671.588 532.51C691.26 552.316 706.792 575.836 717.279 601.701L706.644 609.083C705.486 602.283 702.119 596.053 697.064 591.357C692.009 586.661 685.548 583.759 678.678 583.1C651.474 541.624 609.514 512.035 561.299 500.326L565.73 473.26C587.863 477.864 609.023 486.291 628.26 498.161C627.793 503.025 628.438 507.931 630.144 512.511C631.85 517.09 634.575 521.222 638.111 524.596C641.648 527.97 645.905 530.497 650.561 531.987C655.217 533.477 660.151 533.892 664.99 533.199C665.881 533.157 666.773 533.023 667.695 532.884ZM758.243 622.37C771.706 679.906 766.639 740.222 743.768 794.709L725.354 786.343C728.142 773.956 730.871 761.747 733.594 749.566C736.929 734.647 740.254 719.769 743.669 704.652H751.153L751.744 702.683L741.897 697.861V689.298H750.169L751.055 687.329L742.488 682.113L734.807 627.882L758.243 622.37ZM509.757 254.71C516.802 254.151 523.887 255.039 530.576 257.32C519.688 279.003 504.395 298.177 485.672 313.618L475.825 322.18C473.692 324.723 470.701 326.397 467.417 326.887C464.134 327.376 460.784 326.647 458.002 324.838C454.671 323.342 452.023 320.651 450.583 317.298C449.142 313.944 449.013 310.172 450.222 306.728C452.701 296.483 457.558 286.966 464.401 278.946C471.244 270.927 479.881 264.631 489.611 260.568C495.856 257.262 502.712 255.268 509.757 254.71ZM654.552 795.201C673.126 761.874 681.77 723.932 679.466 685.853L687.54 687.723L689.313 693.825L696.107 696.286L700.243 690.577C700.672 691.221 701.13 691.807 701.557 692.354C702.502 693.563 703.296 694.58 703.296 695.597C703 703.58 702.482 711.786 701.992 719.546C701.83 722.119 701.67 724.642 701.523 727.092C683.109 734.573 681.041 754.552 689.51 772.17C679.506 799.367 664.173 824.295 644.409 845.495L640.077 839.787C645.348 833.255 650.184 826.383 654.552 819.216C656.651 815.562 657.756 811.422 657.756 807.209C657.756 802.995 656.651 798.855 654.552 795.201ZM551.784 827.596C554.138 821.484 556.455 815.466 556.966 809.079C594.316 793.642 624.144 764.218 640.077 727.092C636.221 754.258 625.623 780.028 609.248 802.05C592.874 824.072 571.244 841.647 546.331 853.172C545.549 843.79 548.698 835.613 551.784 827.596ZM663.316 874.136C687.878 849.884 707.507 821.107 721.119 789.394L741.897 798.744C726.46 834.037 703.86 865.742 675.527 891.852L663.316 874.136ZM723.581 597.666C712.477 572.172 696.941 548.846 677.693 528.77L697.781 511.841C717.521 532.585 733.454 556.639 744.851 582.903L723.581 597.666ZM715.113 786.54C702.384 817.434 683.563 845.45 659.771 868.92L647.659 850.416C667.679 828.947 683.539 803.951 694.433 776.698L715.113 786.54ZM267.753 460.957C293.462 432.527 322.077 406.863 353.129 384.384C354.507 385.565 355 386.254 355 386.254C355.368 386.923 355.697 387.613 355.984 388.321C351.293 392.365 346.584 396.366 341.883 400.36C330.798 409.777 319.761 419.155 309.112 428.969C273.035 460.073 244.827 499.261 226.789 543.337C223.764 551.466 221.198 559.779 218.527 568.432C217.285 572.455 216.021 576.552 214.677 580.737L206.504 576.013C207.214 573.573 207.896 571.132 208.576 568.698C210.063 563.376 211.541 558.084 213.298 552.884C225.074 518.89 243.596 487.623 267.753 460.957ZM352.045 381.726C291.19 428.182 235.257 478.279 209.162 554.557L202.762 546.585C217.934 506.292 242.078 469.976 273.366 440.386L279.865 443.241C281.041 441.413 282.217 439.623 283.384 437.847C284.856 435.606 286.315 433.386 287.743 431.135C289.466 427.221 291.792 423.601 294.636 420.406C309.892 407.818 325.468 395.548 341.003 383.311C342.715 381.962 344.427 380.614 346.137 379.266C347.095 378.605 348.117 378.044 349.19 377.592L352.045 381.726ZM734.118 679.16H732.148L730.277 673.55L722.399 671.286L720.036 676.995L710.78 674.042C707.924 661.403 705.116 649.139 702.289 636.797C701.022 631.263 699.751 625.713 698.471 620.107L718.854 605.835C728.148 629.211 733.312 654.02 734.118 679.16ZM610.535 915.375L661.248 877.581L672.277 894.411C656.867 908.792 639.694 921.16 621.17 931.221L610.535 915.375ZM596.847 893.525L646.083 854.747L658.491 872.66L608.172 910.257L596.847 893.525ZM717.673 754.454C717.614 745.623 714.076 737.172 707.826 730.931L710.681 695.302L719.248 697.073L722.006 703.668L728.997 705.931L733.921 699.928C732.984 728.167 727.188 756.035 716.787 782.308L707.826 778.764C711.108 775.649 713.685 771.868 715.383 767.675C717.082 763.482 717.862 758.974 717.673 754.454ZM618.413 933.19L556.966 959.075L549.285 941.654L606.99 916.261L618.413 933.19ZM199.315 690.085V697.073L187.695 697.369L184.741 663.413C193.111 654.752 190.453 646.287 183.756 636.445L192.619 570.895L203.451 577.489C201.868 579.656 200.546 582.002 199.512 584.477C198.251 589.893 197.33 595.383 196.755 600.914C196.591 602.439 196.91 604.023 197.228 605.602C197.484 606.877 197.74 608.147 197.74 609.378C195.013 636.246 195.542 663.344 199.315 690.085ZM286.365 892.049L345.448 924.332L343.675 939.686C320.917 930.617 299.329 918.854 279.373 904.647L286.365 892.049ZM640.077 959.272L624.814 936.536L676.216 899.923L680.45 905.533L640.077 959.272ZM560.708 473.949L557.951 493.633C552.568 489.208 545.868 486.691 538.901 486.478C531.934 486.264 525.093 488.365 519.448 492.452C514.771 494.523 509.777 495.788 504.677 496.192C501.698 496.678 498.643 496.977 495.374 497.296C493.349 497.494 491.242 497.7 489.02 497.964L486.657 486.448C510.424 478.005 535.485 473.774 560.708 473.949ZM285.971 884.963C262.365 868.632 241.465 848.706 224.032 825.909L229.743 821.775C230 821.967 230.298 822.139 230.584 822.303C231.175 822.643 231.712 822.952 231.712 823.35C233.851 828.013 236.946 832.175 240.797 835.566C244.647 838.957 249.168 841.502 254.066 843.035C258.332 844.822 262.339 847.172 265.981 850.023C272.655 855.243 279.168 860.624 285.876 866.165C288.273 868.145 290.696 870.146 293.159 872.168L285.971 884.963ZM548.399 936.438L546.43 934.174V933.682C547.965 931.037 549.165 928.193 550.361 925.361C553.612 917.658 556.824 910.051 566.616 906.813C572.174 904.73 577.569 902.121 583.14 899.427C586.256 897.92 589.427 896.386 592.712 894.903L604.036 911.931L548.399 936.438ZM212.452 670.375C212.86 678.769 213.272 687.234 213.692 695.794L204.042 697.467C199.018 668.215 197.958 638.421 200.891 608.886L209.359 607.902C210.417 628.544 211.423 649.236 212.452 670.375ZM469.031 948.347H516.494L522.501 965.669H463.418L469.031 948.347ZM264.701 876.006L253.179 885.849L207.39 836.637L219.108 828.665C224.538 834.301 229.906 839.887 235.256 845.455C245.043 855.64 254.769 865.761 264.701 876.006ZM320.436 888.211L353.818 904.352L346.334 919.509L288.236 888.309L294.439 876.99C296.827 880.407 300.086 883.121 303.878 884.852C307.671 886.583 311.858 887.267 316.005 886.833C317.57 886.933 319.09 887.405 320.436 888.211ZM216.646 825.318L204.928 832.995L173.515 775.418L184.544 767.741L216.646 825.318ZM221.668 822.366C208.214 804.83 197.184 785.563 188.877 765.084L197.936 758.883L232.402 815.378L221.668 822.366ZM228.597 489.101C224.645 494.071 220.671 499.069 216.646 504.066L211.033 500.227C229 471.439 251.171 445.497 276.813 423.261C274.675 432.142 270.106 440.253 263.617 446.685C251.641 460.124 240.213 474.495 228.597 489.101ZM178.636 561.447C174.303 585.166 170.069 608.394 165.835 632.016L156.677 630.835C158.288 605.786 163.222 581.062 171.349 557.313L178.636 561.447ZM198.33 754.749L187.105 762.525C181.393 741.856 176.568 722.86 171.94 702.88L184.052 702.191L198.33 754.749ZM190.157 568.73L180.31 634.575L169.38 632.311C171.091 622.388 172.766 612.577 174.451 602.7C176.645 589.847 178.858 576.883 181.196 563.415L190.157 568.73ZM506.942 926.103L513.441 942.048H469.818L467.553 926.103H506.942ZM465.092 919.017L454.358 902.679H497.883L503.791 919.017H465.092ZM746.328 586.938L756.175 614.103L732.739 625.028L724.763 601.701L746.328 586.938ZM612.898 848.743L630.722 831.421L642.243 848.94L614.179 873.841L612.898 848.743ZM226.986 775.418L257.512 816.165L234.568 810.85L212.806 777.583L226.986 775.418ZM187.105 702.093L199.512 700.715L213.003 747.367L200.595 751.304L187.105 702.093ZM333.631 872.561L370.263 887.719L356.477 900.021L324.966 885.849L333.631 872.561ZM294.144 867.05L267.95 846.479L273.76 831.913L307.93 858.29L294.144 867.05ZM177.257 744.021L164.554 748.056L156.086 700.617L168.592 703.471L177.257 744.021ZM562.973 901.99L561.299 900.612L566.223 878.959L585.917 867.837L587.197 890.573L562.973 901.99ZM170.289 645.966C169.047 663.664 170.295 681.465 174.008 698.845L183.855 698.156L181.295 662.921C176.911 660.351 173.524 656.377 171.683 651.643C170.969 649.807 170.504 647.898 170.289 645.966ZM177.257 537.727L199.02 495.798L206.799 500.72L187.105 537.727H177.257ZM155.692 665.775V633.591L165.539 635.165V671.09L155.692 665.775ZM681.238 495.011L694.827 507.806L683.207 517.747C680.955 512.051 677.477 506.92 673.018 502.718C668.559 498.517 663.23 495.348 657.408 493.436L681.238 495.011ZM258.989 889.293L267.753 876.892L283.706 888.998L276.32 902.58L258.989 889.293ZM255.814 901.465C256.022 898.965 256.733 896.532 257.906 894.313L273.563 906.517L266.375 919.804C264.107 918.727 262.081 917.203 260.418 915.323C258.755 913.443 257.49 911.246 256.699 908.865C255.908 906.483 255.607 903.966 255.814 901.465ZM311.573 394.423L344.66 370.211L347.811 374.738L312.164 401.805L311.573 394.423ZM760.902 606.131L752.532 583.1L761.591 576.604C765.152 580.738 767.052 586.046 766.925 591.5C766.797 596.953 764.651 602.166 760.902 606.131ZM306.157 387.041L340.327 363.124L343.183 367.849L309.899 392.061L306.157 387.041ZM173.318 771.579L166.721 752.584L177.356 747.466C178.218 748.47 178.977 749.558 179.621 750.714C181.053 754.723 182.393 758.826 183.91 763.469L184.052 763.903L173.318 771.579ZM200.192 476.812C202.328 477.962 204.181 479.573 205.617 481.527L198.429 492.157L180.31 480.248C181.936 478.448 183.942 477.033 186.184 476.104C188.425 475.176 190.845 474.758 193.268 474.88C195.691 475.003 198.056 475.663 200.192 476.812ZM166.524 764.591C167.607 767.446 168.592 770.3 169.773 773.745L160.123 780.536C153.526 773.646 154.609 765.773 163.373 755.93C164.456 758.981 165.441 761.737 166.524 764.591ZM199.611 543.337L191.24 539.006L200.3 518.14L206.799 525.522L199.611 543.337ZM191.93 565.777L183.363 560.659L189.566 543.337L197.838 547.569L191.93 565.777ZM200.694 549.734L208.178 557.313L203.451 573.356L194.884 568.238L200.694 549.734ZM644.311 490.385V492.157L636.433 494.027L612.997 481.133V479.952L644.311 490.385ZM175.583 544.223L186.317 542.254L180.408 558.691L172.235 553.179L175.583 544.223ZM165.736 697.073C158.154 694.514 154.806 686.444 155.889 674.83C158.978 677.657 161.448 681.093 163.142 684.921C164.837 688.749 165.72 692.887 165.736 697.073ZM709.697 679.16L720.922 682.605L720.824 691.463L710.977 689.003L709.697 679.16ZM678.087 669.81L687.934 672.763L688.328 682.015L679.269 679.653L678.087 669.81ZM295.424 407.218L297.886 413.418L288.137 422.375L284.494 417.06L295.424 407.218Z" fill="url(#paint0_linear_1002_2125)"/>
<defs>
<linearGradient id="paint0_linear_1002_2125" x1="497.926" y1="0" x2="497.926" y2="1044" gradientUnits="userSpaceOnUse">
<stop stop-color="#E22E2E"/>
<stop offset="1" stop-color="#3A0707"/>
</linearGradient>
</defs>
</svg>
