<svg width="71" height="72" viewBox="0 0 71 72" fill="none" xmlns="http://www.w3.org/2000/svg">
<path d="M8.875 36H11.8333M35.5 9.375V12.3333M59.1667 36H62.125M16.5667 17.0667L18.6375 19.1375M54.4333 17.0667L52.3625 19.1375M26.625 47.8333C24.1414 45.9706 22.3068 43.3737 21.3812 40.4104C20.4555 37.4471 20.4857 34.2677 21.4674 31.3225C22.4491 28.3773 24.3326 25.8156 26.8512 24.0004C29.3697 22.1851 32.3955 21.2083 35.5 21.2083C38.6045 21.2083 41.6303 22.1851 44.1488 24.0004C46.6674 25.8156 48.5509 28.3773 49.5326 31.3225C50.5143 34.2677 50.5445 37.4471 49.6188 40.4104C48.6932 43.3737 46.8586 45.9706 44.375 47.8333C43.22 48.9767 42.3503 50.3759 41.8364 51.9177C41.3224 53.4595 41.1787 55.1006 41.4167 56.7083C41.4167 58.2775 40.7933 59.7825 39.6837 60.892C38.5741 62.0016 37.0692 62.625 35.5 62.625C33.9308 62.625 32.4259 62.0016 31.3163 60.892C30.2067 59.7825 29.5833 58.2775 29.5833 56.7083C29.8213 55.1006 29.6776 53.4595 29.1636 51.9177C28.6497 50.3759 27.78 48.9767 26.625 47.8333M28.6958 50.7917H42.3042" stroke="#B295C4" stroke-width="6" stroke-linecap="round" stroke-linejoin="round"/>
</svg>
